<?xml version="1.0" encoding="UTF-8" standalone="no"?>
<svg
   xmlns:dc="http://purl.org/dc/elements/1.1/"
   xmlns:cc="http://creativecommons.org/ns#"
   xmlns:rdf="http://www.w3.org/1999/02/22-rdf-syntax-ns#"
   xmlns:svg="http://www.w3.org/2000/svg"
   xmlns="http://www.w3.org/2000/svg"
   xmlns:sodipodi="http://sodipodi.sourceforge.net/DTD/sodipodi-0.dtd"
   xmlns:inkscape="http://www.inkscape.org/namespaces/inkscape"
   viewBox="0 0 144 144"
   version="1.1"
   id="svg1172"
   sodipodi:docname="happy2.svg"
   width="144"
   height="144"
   inkscape:version="0.92.3 (2405546, 2018-03-11)">
  <metadata
     id="metadata1178">
    <rdf:RDF>
      <cc:Work
         rdf:about="">
        <dc:format>image/svg+xml</dc:format>
        <dc:type
           rdf:resource="http://purl.org/dc/dcmitype/StillImage" />
        <dc:title></dc:title>
      </cc:Work>
    </rdf:RDF>
  </metadata>
  <defs
     id="defs1176" />
  <sodipodi:namedview
     pagecolor="#ffffff"
     bordercolor="#666666"
     borderopacity="1"
     objecttolerance="10"
     gridtolerance="10"
     guidetolerance="10"
     inkscape:pageopacity="0"
     inkscape:pageshadow="2"
     inkscape:window-width="1920"
     inkscape:window-height="1010"
     id="namedview1174"
     showgrid="false"
     inkscape:zoom="3.2777778"
     inkscape:cx="45.739941"
     inkscape:cy="19.570515"
     inkscape:window-x="0"
     inkscape:window-y="0"
     inkscape:window-maximized="1"
     inkscape:current-layer="svg1172" />
  <path
     d="m 144,72 c 0,39.764 -32.236,72 -72,72 C 32.24,144 0,111.764 0,72 0,32.24 32.24,0 72,0 c 39.764,0 72,32.24 72,72"
     id="path1164"
     inkscape:connector-curvature="0"
     style="fill:#ffcc4d;stroke-width:4" />
  <path
     d="M 64.000002,72 C 62.323998,72 60.764001,70.94 60.204001,69.264 59.392002,66.868 56.136001,60 52,60 c -4.248,0 -7.552001,7.308 -8.204,9.264 -0.700001,2.092 -2.952,3.232 -5.06,2.528 C 36.64,71.096 35.508,68.828 36.208,66.732 36.708,65.228 41.423999,52 52,52 62.575998,52 67.291998,65.228 67.795998,66.736 68.495999,68.832 67.363998,71.1 65.268,71.796 64.843998,71.932 64.416001,72 64.000002,72 Z M 104,72 c -1.676,0 -3.236,-1.06 -3.792,-2.736 C 99.396,66.868 96.132001,60 92,60 c -4.248,0 -7.556001,7.308 -8.208,9.264 -0.700001,2.092 -2.943998,3.232 -5.06,2.528 -2.091999,-0.696 -3.227999,-2.964 -2.527998,-5.06 C 76.708002,65.228 81.419999,52 92,52 c 10.58,0 15.292,13.228 15.792,14.736 0.7,2.096 -0.432,4.364 -2.528,5.06 C 104.844,71.932 104.416,72 104,72 Z M 72,88 c -14.492,0 -24.107999,-1.688 -36,-4 -2.716,-0.524 -8,0 -8,8 0,16 18.380001,36 44,36 25.616,0 44,-20 44,-36 0,-8 -5.284,-8.528 -8,-8 -11.892001,2.312 -21.508,4 -36,4 z"
     id="path1166"
     inkscape:connector-curvature="0"
     style="fill:#664500;stroke-width:4" />
  <path
     d="m 36,92 c 0,0 12.000001,4 36,4 23.999999,0 36,-4 36,-4 0,0 -5.376,27 -36,27 C 41.376001,119 36,92 36,92 Z"
     id="path1168"
     inkscape:connector-curvature="0"
     style="fill:#ffffff;stroke-width:4" />
  <path
     d="m 72,110.376 c -14.384,0 -25.088001,-1.488 -31.748001,-2.98 L 36.952,99.912 C 40.244001,101.16 52.508,103.5 72.003999,103.5 91.82,103.5 104.152,101.036 107.46,99.748 l -2.804,7.368 c -6.536,1.52 -17.676001,3.26 -32.656,3.26 z"
     id="path1170"
     inkscape:connector-curvature="0"
     style="fill:#664500;stroke-width:4" />
</svg>
