<?xml version="1.0" encoding="UTF-8" standalone="no"?>
<svg
   xmlns:dc="http://purl.org/dc/elements/1.1/"
   xmlns:cc="http://creativecommons.org/ns#"
   xmlns:rdf="http://www.w3.org/1999/02/22-rdf-syntax-ns#"
   xmlns:svg="http://www.w3.org/2000/svg"
   xmlns="http://www.w3.org/2000/svg"
   xmlns:sodipodi="http://sodipodi.sourceforge.net/DTD/sodipodi-0.dtd"
   xmlns:inkscape="http://www.inkscape.org/namespaces/inkscape"
   viewBox="0 0 144 144"
   version="1.1"
   id="svg1156"
   sodipodi:docname="happy.svg"
   width="144"
   height="144"
   inkscape:version="0.92.3 (2405546, 2018-03-11)">
  <metadata
     id="metadata1162">
    <rdf:RDF>
      <cc:Work
         rdf:about="">
        <dc:format>image/svg+xml</dc:format>
        <dc:type
           rdf:resource="http://purl.org/dc/dcmitype/StillImage" />
        <dc:title></dc:title>
      </cc:Work>
    </rdf:RDF>
  </metadata>
  <defs
     id="defs1160" />
  <sodipodi:namedview
     pagecolor="#ffffff"
     bordercolor="#666666"
     borderopacity="1"
     objecttolerance="10"
     gridtolerance="10"
     guidetolerance="10"
     inkscape:pageopacity="0"
     inkscape:pageshadow="2"
     inkscape:window-width="1920"
     inkscape:window-height="1010"
     id="namedview1158"
     showgrid="false"
     inkscape:zoom="1.1588694"
     inkscape:cx="-162.54316"
     inkscape:cy="-59.172308"
     inkscape:window-x="0"
     inkscape:window-y="0"
     inkscape:window-maximized="1"
     inkscape:current-layer="svg1156" />
  <circle
     cx="72"
     cy="72"
     id="circle1146"
     style="fill:#ffcc4d;stroke-width:4"
     r="72" />
  <path
     d="m 72,84 c -14.492,0 -24.108,-1.688 -36,-4 -2.716,-0.524 -8,0 -8,8 0,16 18.38,36 44,36 25.616,0 44,-20 44,-36 0,-8 -5.284,-8.528 -8,-8 -11.892,2.312 -21.508,4 -36,4 z"
     id="path1148"
     inkscape:connector-curvature="0"
     style="fill:#664500;stroke-width:4" />
  <path
     d="m 36,88 c 0,0 12,4 36,4 24,0 36,-4 36,-4 0,0 -8,16 -36,16 C 44,104 36,88 36,88 Z"
     id="path1150"
     inkscape:connector-curvature="0"
     style="fill:#ffffff;stroke-width:4" />
  <ellipse
     cx="48"
     cy="54"
     rx="10"
     ry="14"
     id="ellipse1152"
     style="fill:#664500;stroke-width:4" />
  <ellipse
     cx="96"
     cy="54"
     rx="10"
     ry="14"
     id="ellipse1154"
     style="fill:#664500;stroke-width:4" />
</svg>
