<?xml version="1.0" encoding="UTF-8" standalone="no"?>
<svg
   xmlns:dc="http://purl.org/dc/elements/1.1/"
   xmlns:cc="http://creativecommons.org/ns#"
   xmlns:rdf="http://www.w3.org/1999/02/22-rdf-syntax-ns#"
   xmlns:svg="http://www.w3.org/2000/svg"
   xmlns="http://www.w3.org/2000/svg"
   xmlns:sodipodi="http://sodipodi.sourceforge.net/DTD/sodipodi-0.dtd"
   xmlns:inkscape="http://www.inkscape.org/namespaces/inkscape"
   viewBox="0 0 144 144"
   version="1.1"
   id="svg891"
   sodipodi:docname="heart-eyes.svg"
   width="144"
   height="144"
   inkscape:version="0.92.3 (2405546, 2018-03-11)">
  <metadata
     id="metadata897">
    <rdf:RDF>
      <cc:Work
         rdf:about="">
        <dc:format>image/svg+xml</dc:format>
        <dc:type
           rdf:resource="http://purl.org/dc/dcmitype/StillImage" />
        <dc:title></dc:title>
      </cc:Work>
    </rdf:RDF>
  </metadata>
  <defs
     id="defs895" />
  <sodipodi:namedview
     pagecolor="#ffffff"
     bordercolor="#666666"
     borderopacity="1"
     objecttolerance="10"
     gridtolerance="10"
     guidetolerance="10"
     inkscape:pageopacity="0"
     inkscape:pageshadow="2"
     inkscape:window-width="1920"
     inkscape:window-height="1010"
     id="namedview893"
     showgrid="false"
     inkscape:zoom="0.50270873"
     inkscape:cx="160.62634"
     inkscape:cy="593.53376"
     inkscape:window-x="0"
     inkscape:window-y="0"
     inkscape:window-maximized="1"
     inkscape:current-layer="svg891" />
  <path
     d="m 144,72 c 0,39.764 -32.236,72 -72.000002,72 C 32.235999,144 0,111.764 0,72 0,32.236 32.235999,0 71.999998,0 111.764,0 144,32.236 144,72"
     id="path885"
     inkscape:connector-curvature="0"
     style="fill:#ffcc4d;stroke-width:4" />
  <path
     d="m 71.999998,87.396 c -11.863999,0 -19.739999,-1.384 -29.476001,-3.276001 -2.227998,-0.423998 -6.551998,0 -6.551998,6.552002 0,13.099999 15.051999,29.475999 36.027999,29.475999 20.976,0 36.027992,-16.376 36.027992,-29.475999 0,-6.552002 -4.32799,-6.980001 -6.55199,-6.552002 C 91.739997,86.012 83.867998,87.396 71.999998,87.396"
     id="path887"
     inkscape:connector-curvature="0"
     style="fill:#664500;stroke-width:4" />
  <path
     d="M 66.599997,13.124 C 63.163998,3.4000007 52.503998,-1.7039996 42.775998,1.7240011 36.871998,3.8040008 32.691998,8.5680004 31.063998,14.14 26.299999,10.824001 20.059998,9.7399998 14.164,11.82 4.4439998,15.252 -0.66799999,25.919999 2.7679999,35.644001 c 0.488,1.376 1.136,2.651999 1.8879999,3.831999 C 12.46,53.804001 35.007998,63.876001 48.66,64 59.207998,55.332 70.443998,33.339999 67.531998,17.291999 67.379996,15.9 67.079998,14.499999 66.599997,13.124 Z m 10.8,0 C 80.835998,3.4000007 91.499996,-1.7039996 101.224,1.7240011 107.128,3.8040008 111.308,8.5680004 112.93999,14.14 c 4.764,-3.315999 11.00401,-4.4000002 16.90001,-2.32 9.71999,3.432 14.828,14.099999 11.39999,23.824001 -0.492,1.376 -1.136,2.651999 -1.892,3.831999 C 131.544,53.804001 108.99599,63.876001 95.339997,64 84.791997,55.332 73.559997,33.339999 76.471998,17.291999 76.619999,15.9 76.919997,14.499999 77.399997,13.124 Z"
     id="path889"
     inkscape:connector-curvature="0"
     style="fill:#dd2e44;stroke-width:4" />
</svg>
