<?xml version="1.0" encoding="UTF-8" standalone="no"?>
<svg
   xmlns:dc="http://purl.org/dc/elements/1.1/"
   xmlns:cc="http://creativecommons.org/ns#"
   xmlns:rdf="http://www.w3.org/1999/02/22-rdf-syntax-ns#"
   xmlns:svg="http://www.w3.org/2000/svg"
   xmlns="http://www.w3.org/2000/svg"
   xmlns:sodipodi="http://sodipodi.sourceforge.net/DTD/sodipodi-0.dtd"
   xmlns:inkscape="http://www.inkscape.org/namespaces/inkscape"
   viewBox="0 0 144 144"
   version="1.1"
   id="svg1198"
   sodipodi:docname="joy.svg"
   width="144"
   height="144"
   inkscape:version="0.92.3 (2405546, 2018-03-11)">
  <metadata
     id="metadata1204">
    <rdf:RDF>
      <cc:Work
         rdf:about="">
        <dc:format>image/svg+xml</dc:format>
        <dc:type
           rdf:resource="http://purl.org/dc/dcmitype/StillImage" />
        <dc:title></dc:title>
      </cc:Work>
    </rdf:RDF>
  </metadata>
  <defs
     id="defs1202" />
  <sodipodi:namedview
     pagecolor="#ffffff"
     bordercolor="#666666"
     borderopacity="1"
     objecttolerance="10"
     gridtolerance="10"
     guidetolerance="10"
     inkscape:pageopacity="0"
     inkscape:pageshadow="2"
     inkscape:window-width="1920"
     inkscape:window-height="1010"
     id="namedview1200"
     showgrid="false"
     inkscape:zoom="3.2777778"
     inkscape:cx="-23.678396"
     inkscape:cy="30.880332"
     inkscape:window-x="0"
     inkscape:window-y="0"
     inkscape:window-maximized="1"
     inkscape:current-layer="svg1198" />
  <path
     d="m 144,72 c 0,39.764 -32.236,72 -72,72 C 32.24,144 0,111.764 0,72 0,32.24 32.24,0 72,0 c 39.764,0 72,32.24 72,72"
     id="path1190"
     inkscape:connector-curvature="0"
     style="fill:#ffcc4d;stroke-width:4" />
  <path
     d="M 113.828,71.188 C 113.588,70.648 107.832,58 96,58 84.172,58 78.412,70.648 78.172,71.188 c -0.368,0.828 -0.128,1.796 0.58,2.364 0.7,0.568 1.704,0.588 2.44,0.056 C 81.24,73.572 86.24,70 96,70 c 9.704,0 14.696,3.524 14.808,3.604 0.352,0.264 0.776,0.396 1.192,0.396 0.44,0 0.884,-0.148 1.248,-0.436 0.708,-0.568 0.952,-1.544 0.58,-2.376 z m -48,0 C 65.588,70.648 59.832,58 48,58 36.172,58 30.412,70.648 30.172,71.188 c -0.368,0.828 -0.128,1.796 0.576,2.364 0.704,0.568 1.708,0.588 2.44,0.056 C 33.24,73.572 38.236,70 48,70 57.704,70 62.696,73.524 62.808,73.604 63.16,73.868 63.584,74 64,74 c 0.44,0 0.884,-0.148 1.248,-0.436 0.712,-0.568 0.948,-1.544 0.58,-2.376 z M 124,64 c -1.584,0 -3.088,-0.952 -3.716,-2.516 C 113.172,43.704 95.392,39.96 95.212,39.92 93.048,39.488 91.64,37.38 92.076,35.212 c 0.432,-2.168 2.54,-3.564 4.708,-3.136 0.904,0.18 22.224,4.672 30.928,26.432 0.82,2.052 -0.18,4.38 -2.232,5.2 C 125,63.908 124.496,64 124,64 Z M 20,64 c -0.496,0 -0.996,-0.092 -1.484,-0.288 -2.052,-0.82 -3.048,-3.148 -2.228,-5.2 8.704,-21.76 30.024,-26.252 30.928,-26.432 2.172,-0.424 4.272,0.972 4.708,3.136 0.432,2.16 -0.968,4.264 -3.124,4.704 C 48.06,40.072 30.776,43.84 23.716,61.484 23.088,63.048 21.584,64 20,64 Z m 52,24 c -14.492,0 -24.108,-1.688 -36,-4 -2.716,-0.524 -8,0 -8,8 0,16 18.38,36 44,36 25.616,0 44,-20 44,-36 0,-8 -5.284,-8.528 -8,-8 -11.892,2.312 -21.508,4 -36,4 z"
     id="path1192"
     inkscape:connector-curvature="0"
     style="fill:#664500;stroke-width:4" />
  <path
     d="m 36,92 c 0,0 12,4 36,4 24,0 36,-4 36,-4 0,0 -8,16 -36,16 C 44,108 36,92 36,92 Z"
     id="path1194"
     inkscape:connector-curvature="0"
     style="fill:#ffffff;stroke-width:4" />
  <path
     d="m 43.388,112.916 c -2.72,10.708 -13.6,17.18 -24.308,14.46 C 8.376,124.66 1.9,113.78 4.616,103.072 7.332,92.364 29.964,68.24 33.844,69.224 c 3.88,0.988 12.26,32.988 9.544,43.692 z m 57.144,0 c 2.72,10.708 13.6,17.18 24.308,14.46 10.708,-2.716 17.184,-13.596 14.464,-24.304 -2.72,-10.708 -25.352,-34.832 -29.232,-33.848 -3.872,0.988 -12.256,32.988 -9.54,43.692 z"
     id="path1196"
     inkscape:connector-curvature="0"
     style="fill:#5dadec;stroke-width:4" />
</svg>
