<?xml version="1.0" encoding="UTF-8" standalone="no"?>
<!-- Generated by IcoMoon.io -->

<svg
   xmlns:dc="http://purl.org/dc/elements/1.1/"
   xmlns:cc="http://creativecommons.org/ns#"
   xmlns:rdf="http://www.w3.org/1999/02/22-rdf-syntax-ns#"
   xmlns:svg="http://www.w3.org/2000/svg"
   xmlns="http://www.w3.org/2000/svg"
   xmlns:sodipodi="http://sodipodi.sourceforge.net/DTD/sodipodi-0.dtd"
   xmlns:inkscape="http://www.inkscape.org/namespaces/inkscape"
   version="1.1"
   width="256"
   height="256"
   viewBox="0 0 256 256"
   id="svg4310"
   inkscape:version="0.91 r13725"
   sodipodi:docname="logo.svg"
   inkscape:export-filename="/home/brian/dev/ubuntu/finger-painting/app/graphics/finger-painting.png"
   inkscape:export-xdpi="90"
   inkscape:export-ydpi="90">
  <metadata
     id="metadata4318">
    <rdf:RDF>
      <cc:Work
         rdf:about="">
        <dc:format>image/svg+xml</dc:format>
        <dc:type
           rdf:resource="http://purl.org/dc/dcmitype/StillImage" />
        <dc:title></dc:title>
      </cc:Work>
    </rdf:RDF>
  </metadata>
  <defs
     id="defs4316" />
  <sodipodi:namedview
     pagecolor="#ffffff"
     bordercolor="#666666"
     borderopacity="1"
     objecttolerance="10"
     gridtolerance="10"
     guidetolerance="10"
     inkscape:pageopacity="0"
     inkscape:pageshadow="2"
     inkscape:window-width="1920"
     inkscape:window-height="1035"
     id="namedview4314"
     showgrid="false"
     inkscape:zoom="0.56770834"
     inkscape:cx="638.11332"
     inkscape:cy="25.14118"
     inkscape:window-x="0"
     inkscape:window-y="0"
     inkscape:window-maximized="1"
     inkscape:current-layer="svg4310" />
  <rect
     style="fill:#55ff00;fill-opacity:1;stroke:none;stroke-width:32;stroke-miterlimit:4;stroke-dasharray:none;stroke-opacity:1"
     id="rect4932"
     width="256"
     height="256"
     x="0"
     y="0" />
  <rect
     style="fill:#0000aa;fill-opacity:1;stroke:none;stroke-width:32;stroke-miterlimit:4;stroke-dasharray:none;stroke-opacity:1"
     id="rect4924"
     width="58.715595"
     height="51.082569"
     x="35.522938"
     y="85.72477" />
  <rect
     style="fill:#aa0000;fill-opacity:1;stroke:none;stroke-width:32;stroke-miterlimit:4;stroke-dasharray:none;stroke-opacity:1"
     id="rect4926"
     width="46.678898"
     height="43.155964"
     x="75.449539"
     y="38.752277" />
  <rect
     style="fill:#00aa00;fill-opacity:1;stroke:none;stroke-width:32;stroke-miterlimit:4;stroke-dasharray:none;stroke-opacity:1"
     id="rect4928"
     width="43.449539"
     height="46.972477"
     x="136.80734"
     y="34.348633" />
  <rect
     style="fill:#ffff00;fill-opacity:1;stroke:none;stroke-width:32;stroke-miterlimit:4;stroke-dasharray:none;stroke-opacity:1"
     id="rect4930"
     width="45.21101"
     height="43.743118"
     x="173.50458"
     y="87.486168" />
  <path
     d="m 195.72992,128 q 7.52144,0 13.02974,-5.21184 5.50831,-5.21195 5.49596,-13.31381 -0.0128,-8.10198 -5.49596,-13.313817 -5.48361,-5.211946 -13.02974,-5.211946 -7.54613,0 -13.02973,5.211946 -5.4836,5.211837 -5.49596,13.313817 -0.0128,8.10186 5.49596,13.31381 Q 188.2085,128 195.72992,128 Z M 158.67855,78.795733 q 7.52143,0 13.02973,-5.495893 5.50831,-5.496 5.49595,-13.02976 -0.0128,-7.53376 -5.49595,-13.02976 -5.4836,-5.495893 -13.02973,-5.495893 -7.54613,0 -13.02974,5.495893 -5.4836,5.496 -5.49596,13.02976 -0.0128,7.53376 5.49596,13.02976 5.5083,5.495893 13.02974,5.495893 z m -61.357096,0 q 7.521426,0 13.029736,-5.495893 5.5083,-5.496 5.49596,-13.02976 -0.0128,-7.53376 -5.49596,-13.02976 -5.4836,-5.495893 -13.029736,-5.495893 -7.546131,0 -13.029736,5.495893 -5.483603,5.496 -5.495954,13.02976 -0.01237,7.53376 5.495954,13.02976 5.508307,5.495893 13.029736,5.495893 z M 60.270074,128 q 7.52143,0 13.029735,-5.21184 5.508306,-5.21195 5.495955,-13.31381 -0.01237,-8.10198 -5.495955,-13.313817 -5.483603,-5.211946 -13.029735,-5.211946 -7.546132,0 -13.029736,5.211946 -5.483604,5.211837 -5.495954,13.313817 -0.01227,8.10186 5.495954,13.31381 Q 52.748644,128 60.270074,128 Z M 128,16.845867 q 45.73376,0 78.45012,28.94944 32.71637,28.949546 32.70402,70.051843 0,25.47904 -18.24163,43.42421 -18.24162,17.94517 -43.70828,17.94517 l -21.41569,0 q -8.10189,0 -13.3138,5.496 -5.21189,5.496 -5.21189,13.02976 0,6.3728 4.63142,12.15286 4.63142,5.77994 4.63142,12.73333 0,8.10187 -5.2119,13.31381 -5.21189,5.21184 -13.31379,5.21184 -46.314228,0 -78.734186,-32.41994 Q 16.845856,174.31424 16.845856,128 q 0,-46.31424 32.419958,-78.734187 Q 81.685772,16.845867 128,16.845867 Z"
     id="path4312"
     style="fill:#aa5500;fill-opacity:1"
     inkscape:connector-curvature="0" />
  <g
     id="g4614-8-97-2"
     transform="matrix(0,-1,0.5,0,118.19233,278.23988)"
     style="display:inline;opacity:0.15;fill:#ffffff">
    <path
       style="opacity:1;fill:#ffffff;fill-opacity:1;fill-rule:nonzero;stroke:none"
       d="m 22.239878,-236.38467 256.000002,512.00001 -256.000002,0 z"
       id="rect2985-57-34-5"
       inkscape:connector-curvature="0"
       sodipodi:nodetypes="cccc" />
  </g>
</svg>
