<?xml version="1.0" encoding="UTF-8" standalone="no"?>
<svg
   xmlns:dc="http://purl.org/dc/elements/1.1/"
   xmlns:cc="http://creativecommons.org/ns#"
   xmlns:rdf="http://www.w3.org/1999/02/22-rdf-syntax-ns#"
   xmlns:svg="http://www.w3.org/2000/svg"
   xmlns="http://www.w3.org/2000/svg"
   xmlns:sodipodi="http://sodipodi.sourceforge.net/DTD/sodipodi-0.dtd"
   xmlns:inkscape="http://www.inkscape.org/namespaces/inkscape"
   viewBox="0 0 144 144"
   version="1.1"
   id="svg1236"
   sodipodi:docname="party.svg"
   width="144"
   height="144"
   inkscape:version="0.92.3 (2405546, 2018-03-11)">
  <metadata
     id="metadata1242">
    <rdf:RDF>
      <cc:Work
         rdf:about="">
        <dc:format>image/svg+xml</dc:format>
        <dc:type
           rdf:resource="http://purl.org/dc/dcmitype/StillImage" />
        <dc:title></dc:title>
      </cc:Work>
    </rdf:RDF>
  </metadata>
  <defs
     id="defs1240" />
  <sodipodi:namedview
     pagecolor="#ffffff"
     bordercolor="#666666"
     borderopacity="1"
     objecttolerance="10"
     gridtolerance="10"
     guidetolerance="10"
     inkscape:pageopacity="0"
     inkscape:pageshadow="2"
     inkscape:window-width="1920"
     inkscape:window-height="1010"
     id="namedview1238"
     showgrid="false"
     inkscape:zoom="2.3177389"
     inkscape:cx="-88.529209"
     inkscape:cy="32.226216"
     inkscape:window-x="0"
     inkscape:window-y="0"
     inkscape:window-maximized="1"
     inkscape:current-layer="svg1236" />
  <circle
     cx="68"
     cy="76"
     id="circle1206"
     style="fill:#ffcc4d;stroke-width:4"
     r="68" />
  <ellipse
     cx="71.996002"
     cy="104"
     rx="8"
     ry="10"
     id="ellipse1208"
     style="fill:#664500;stroke-width:4" />
  <path
     d="m 32.444,85.532 c -0.728,0 -1.468,-0.2 -2.128,-0.616 -1.868,-1.176 -2.428,-3.644 -1.252,-5.516 3.664,-5.812 14.804,-15.752 30.76,-11.848 2.144,0.524 3.456,2.692 2.932,4.836 -0.528,2.144 -2.704,3.448 -4.836,2.932 -14.416,-3.528 -22.008,8.224 -22.084,8.344 -0.764,1.208 -2.064,1.868 -3.392,1.868 z M 80.336,70.564 c -1.16,0 -2.304,-0.5 -3.096,-1.464 -1.4,-1.708 -1.152,-4.232 0.56,-5.632 12.704,-10.416 27.048,-6.248 32.86,-2.584 1.868,1.176 2.428,3.648 1.248,5.516 -1.172,1.86 -3.632,2.428 -5.504,1.26 -0.552,-0.336 -12.208,-7.292 -23.536,1.996 -0.744,0.612 -1.64,0.908 -2.532,0.908 z"
     id="path1210"
     inkscape:connector-curvature="0"
     style="fill:#664500;stroke-width:4" />
  <path
     d="m 53.384,125.092 c -0.272,0 -0.548,-0.036 -0.82,-0.112 -1.592,-0.452 -2.52,-2.108 -2.068,-3.704 1.748,-6.16 1.032,-12.116 -1.96,-16.344 -1.988,-2.808 -4.82,-4.524 -7.772,-4.712 -1.656,-0.1 -2.912,-1.528 -2.808,-3.18 0.104,-1.652 1.524,-3.004 3.18,-2.804 4.772,0.296 9.252,2.932 12.292,7.228 4.044,5.716 5.08,13.532 2.836,21.444 -0.372,1.324 -1.576,2.184 -2.88,2.184 z m 44.148,-12.244 c -0.568,0 -1.14,-0.16 -1.648,-0.496 -4.668,-3.08 -7.28,-8.468 -7.168,-14.78 0.116,-6.54 3.236,-12.612 7.936,-15.476 1.412,-0.864 3.256,-0.416 4.12,1.004 0.864,1.416 0.416,3.256 -1.004,4.12 -2.94,1.792 -4.976,5.996 -5.056,10.456 -0.08,4.22 1.556,7.744 4.472,9.668 1.384,0.912 1.764,2.772 0.852,4.156 -0.576,0.876 -1.528,1.348 -2.504,1.348 z"
     id="path1212"
     inkscape:connector-curvature="0"
     style="fill:#e2a62d;stroke-width:4" />
  <path
     d="m 68.716,10.88 c -0.172,-0.196 -0.44,-0.304 -0.756,-0.364 0,0 -63.696,-12.092 -66.452,-9.66 -2.752,2.436 1.452,67.136 1.452,67.136 0.02,0.324 0.092,0.6 0.268,0.796 C 5.644,71.524 22.26,60.772 40.344,44.784 58.432,28.792 71.132,13.616 68.716,10.88 Z"
     id="path1214"
     inkscape:connector-curvature="0"
     style="fill:#dd2e44;stroke-width:4" />
  <path
     d="M 1.396,1.084 C 1.336,1.204 1.284,1.368 1.244,1.576 1.88,7.06 8.024,52.184 11.852,66.288 17.596,63.076 23.432,58.712 30.288,53.276 24.464,42.616 4.632,0.584 1.396,1.084 Z"
     id="path1216"
     inkscape:connector-curvature="0"
     style="fill:#ea596e;stroke-width:4" />
  <path
     d="m 119.608,116.916 -42.292,-5.212 c -4.52,-0.408 -12.468,-0.448 -12.06,-7.608 0.372,-6.492 8.16,-5.492 13.916,-4.64 l 42.552,7.096 z"
     id="path1218"
     inkscape:connector-curvature="0"
     style="fill:#3b88c3;stroke-width:4" />
  <path
     d="m 121.72,106.556 -16.888,-2.896 c -1.976,-0.356 -3.736,2.588 -3.824,5.704 -0.1,3.464 0.908,5.216 2.904,5.624 l 16.576,2.048 z"
     id="path1220"
     inkscape:connector-curvature="0"
     style="fill:#88c9f9;stroke-width:4" />
  <path
     d="m 139.672,105.364 -10.488,9.644 -18.748,-20.388 10.488,-9.644 c 5.444,-5.008 13.996,-4.648 19.004,0.796 l 0.54,0.588 c 5.004,5.448 4.648,13.996 -0.796,19.004 z"
     id="path1222"
     inkscape:connector-curvature="0"
     style="fill:#3b88c3;stroke-width:4" />
  <ellipse
     transform="rotate(-42.597001)"
     cx="17.246363"
     cy="158.24934"
     rx="11.08"
     ry="13.848001"
     id="ellipse1224"
     style="fill:#88c9f9;stroke-width:4" />
  <ellipse
     transform="rotate(-42.597001)"
     cx="17.246363"
     cy="158.24934"
     rx="5.54"
     ry="8.3079996"
     id="ellipse1226"
     style="fill:#226699;stroke-width:4" />
  <circle
     cx="10"
     cy="134"
     id="circle1228"
     style="fill:#55acee;stroke-width:4"
     r="6" />
  <circle
     cx="116"
     cy="8"
     id="circle1230"
     style="fill:#55acee;stroke-width:4"
     r="8" />
  <path
     d="M 19.456,116.984 10.104,94.52 1.648,118.7 Z M 104,20 88,24 92,8 Z"
     id="path1232"
     inkscape:connector-curvature="0"
     style="fill:#ea596e;stroke-width:4" />
  <path
     d="M 127.996,52 144,31.996 132,24 Z"
     id="path1234"
     inkscape:connector-curvature="0"
     style="fill:#77b255;stroke-width:4" />
</svg>
