<?xml version="1.0" encoding="UTF-8" standalone="no"?>
<svg
   xmlns:dc="http://purl.org/dc/elements/1.1/"
   xmlns:cc="http://creativecommons.org/ns#"
   xmlns:rdf="http://www.w3.org/1999/02/22-rdf-syntax-ns#"
   xmlns:svg="http://www.w3.org/2000/svg"
   xmlns="http://www.w3.org/2000/svg"
   xmlns:sodipodi="http://sodipodi.sourceforge.net/DTD/sodipodi-0.dtd"
   xmlns:inkscape="http://www.inkscape.org/namespaces/inkscape"
   viewBox="0 0 144 144"
   version="1.1"
   id="svg1262"
   sodipodi:docname="sleep.svg"
   width="144"
   height="144"
   inkscape:version="0.92.3 (2405546, 2018-03-11)">
  <metadata
     id="metadata1268">
    <rdf:RDF>
      <cc:Work
         rdf:about="">
        <dc:format>image/svg+xml</dc:format>
        <dc:type
           rdf:resource="http://purl.org/dc/dcmitype/StillImage" />
        <dc:title></dc:title>
      </cc:Work>
    </rdf:RDF>
  </metadata>
  <defs
     id="defs1266" />
  <sodipodi:namedview
     pagecolor="#ffffff"
     bordercolor="#666666"
     borderopacity="1"
     objecttolerance="10"
     gridtolerance="10"
     guidetolerance="10"
     inkscape:pageopacity="0"
     inkscape:pageshadow="2"
     inkscape:window-width="1920"
     inkscape:window-height="1010"
     id="namedview1264"
     showgrid="false"
     inkscape:zoom="6.5555556"
     inkscape:cx="18"
     inkscape:cy="18"
     inkscape:window-x="0"
     inkscape:window-y="0"
     inkscape:window-maximized="1"
     inkscape:current-layer="svg1262" />
  <circle
     cx="72"
     cy="72"
     id="circle1244"
     style="fill:#ffcc4d;stroke-width:4"
     r="72" />
  <ellipse
     cx="72"
     cy="104"
     id="circle1246"
     style="fill:#664500;stroke-width:4"
     rx="12.000001"
     ry="12" />
  <path
     d="m 69.248003,66.448 c -0.704,-0.572 -1.707999,-0.588 -2.440002,-0.056 -0.04799,0.036 -5.04,3.608 -14.807999,3.608 -9.763998,0 -14.76,-3.572 -14.800001,-3.6 -0.731999,-0.548 -1.74,-0.532 -2.444,0.036 -0.711999,0.568 -0.952,1.544 -0.583999,2.376 0.240001,0.54 5.999999,13.188 17.828,13.188 11.832002,0 17.588001,-12.648 17.828002,-13.188 0.367978,-0.828 0.128005,-1.796 -0.580001,-2.364 z m 40.000007,0 C 108.54401,65.876 107.544,65.856 106.808,66.392 106.76,66.428 101.764,70 92.000004,70 c -9.760001,0 -14.76,-3.572 -14.800001,-3.6 -0.731999,-0.548 -1.735998,-0.532 -2.443999,0.036 -0.712003,0.568 -0.952,1.544 -0.584002,2.376 C 74.412015,69.352 80.172003,82 92.000004,82 103.83201,82 109.58801,69.352 109.828,68.812 c 0.36802,-0.828 0.12801,-1.796 -0.57999,-2.364 z"
     id="path1248"
     inkscape:connector-curvature="0"
     style="fill:#664500;stroke-width:4" />
  <path
     d="m 137.72001,50.136 c 0.016,-0.176 0.092,-0.308 0.092,-0.492 0,-3.016 -2.192,-4.752 -4.9,-4.752 h -14.328 l 17.116,-23.972 c 0.824,-1.132 1.128,-1.812 1.128,-3.244 0,-2.94 -2.56,-3.396 -3.54,-3.396 h -21.396 l -0.128,-2.752 c 0,0 -5.63601,3.324 -6.01201,3.552 -0.37599,0.228 -2.02,1.488 -2.02,3.948 0,3.016 2.18401,4.748 4.90001,4.748 H 121.228 l -17.044,23.972 c -0.37599,0.604 -0.976,1.732 -0.976,2.94 0,2.488 2.032,3.696 4.444,3.696 h 25.26003 c 1.032,0 2.06,-0.304 2.724,-0.704 l 6.012,-3.552 h -3.928 z"
     id="path1250"
     inkscape:connector-curvature="0"
     style="fill:#ffac33;stroke-width:4" />
  <path
     d="m 127.08401,20.336 h -12.596 c -2.71601,0 -4.9,-1.732 -4.9,-4.748 0,-3.016 2.18399,-4.752 4.9,-4.752 h 24.656 c 0.97999,0 3.54,0.452 3.54,3.392 0,1.432 -0.304,2.112 -1.128,3.244 l -17.116,23.972 h 14.328 c 2.708,0 4.89999,1.732 4.89999,4.748 0,3.016 -2.19199,4.748 -4.89999,4.748 H 113.508 c -2.412,0 -4.44399,-1.208 -4.44399,-3.696 0,-1.208 0.6,-2.336 0.976,-2.94 z"
     id="path1252"
     inkscape:connector-curvature="0"
     style="fill:#2a6797;stroke-width:4" />
  <path
     d="m 99.544005,29.92 c 0.01197,-0.132 0.072,-0.232 0.072,-0.368 0,-2.256 -1.64,-3.556 -3.667999,-3.556 H 85.220005 l 12.812,-17.948 c 0.623999,-0.848 0.848001,-1.356 0.848001,-2.424 0,-2.2 -1.916002,-2.54 -2.652002,-2.54 h -16.016 l -0.09601,-2.06 c 0,0 -4.219998,2.488 -4.5,2.66 -0.279982,0.172 -1.512,1.116 -1.512,2.956 0,2.256 1.635999,3.556 3.667999,3.556 h 9.428003 L 74.439992,28.144 c -0.279982,0.452 -0.731998,1.296 -0.731998,2.2 0,1.864 1.520002,2.764 3.327999,2.764 h 18.912004 c 0.771999,0 1.539998,-0.228 2.039997,-0.528 l 4.499996,-2.66 z"
     id="path1254"
     inkscape:connector-curvature="0"
     style="fill:#ffac33;stroke-width:4" />
  <path
     d="m 91.584004,7.612 h -9.428 c -2.031999,0 -3.667999,-1.296 -3.667999,-3.556 0,-2.256 1.636,-3.556 3.667999,-3.556 H 100.616 c 0.736,0 2.652,0.34 2.652,2.54 0,1.072 -0.228,1.58 -0.84399,2.428 L 89.612006,23.416 h 10.728004 c 2.01999,0 3.65999,1.296 3.65999,3.556 0,2.26 -1.64,3.556 -3.668,3.556 H 81.420005 c -1.808002,0 -3.328,-0.904 -3.328,-2.764 0,-0.904 0.451997,-1.748 0.731999,-2.2 z"
     id="path1256"
     inkscape:connector-curvature="0"
     style="fill:#2a6797;stroke-width:4" />
  <path
     d="m 70.964005,41.7 c 0.01197,-0.112 0.05999,-0.196 0.05999,-0.316 0,-1.932 -1.404,-3.044 -3.139998,-3.044 h -9.18 L 69.671995,22.98 c 0.528001,-0.724 0.724001,-1.16 0.724001,-2.076 0,-1.884 -1.640001,-2.176 -2.268001,-2.176 H 54.42 l -0.08401,-1.764 -3.852,2.276 c -0.240013,0.148 -1.296,0.952 -1.296,2.532 0,1.932 1.400003,3.044 3.140002,3.044 h 8.068001 L 49.47599,40.176 c -0.240014,0.388 -0.628,1.112 -0.628,1.884 0,1.596 1.304002,2.368 2.848001,2.368 h 16.188002 c 0.659999,0 1.319998,-0.196 1.744,-0.452 l 3.852,-2.276 z"
     id="path1258"
     inkscape:connector-curvature="0"
     style="fill:#ffac33;stroke-width:4" />
  <path
     d="m 64.148002,22.608 h -8.068001 c -1.739999,0 -3.139998,-1.112 -3.139998,-3.044 0,-1.932 1.399999,-3.044 3.139998,-3.044 h 15.800003 c 0.628,0 2.268,0.292 2.268,2.176 0,0.916 -0.191986,1.352 -0.724,2.076 l -10.968002,15.36 h 9.18 c 1.736002,0 3.140002,1.112 3.140002,3.044 0,1.932 -1.404,3.044 -3.140002,3.044 H 55.448004 c -1.544003,0 -2.848001,-0.772 -2.848001,-2.368 0,-0.772 0.384013,-1.496 0.628,-1.884 z"
     id="path1260"
     inkscape:connector-curvature="0"
     style="fill:#2a6797;stroke-width:4" />
</svg>
