<?xml version="1.0" encoding="UTF-8" standalone="no"?>
<svg
   xmlns:dc="http://purl.org/dc/elements/1.1/"
   xmlns:cc="http://creativecommons.org/ns#"
   xmlns:rdf="http://www.w3.org/1999/02/22-rdf-syntax-ns#"
   xmlns:svg="http://www.w3.org/2000/svg"
   xmlns="http://www.w3.org/2000/svg"
   xmlns:sodipodi="http://sodipodi.sourceforge.net/DTD/sodipodi-0.dtd"
   xmlns:inkscape="http://www.inkscape.org/namespaces/inkscape"
   viewBox="0 0 144 144"
   version="1.1"
   id="svg1278"
   sodipodi:docname="smile.svg"
   width="144"
   height="144"
   inkscape:version="0.92.3 (2405546, 2018-03-11)">
  <metadata
     id="metadata1284">
    <rdf:RDF>
      <cc:Work
         rdf:about="">
        <dc:format>image/svg+xml</dc:format>
        <dc:type
           rdf:resource="http://purl.org/dc/dcmitype/StillImage" />
        <dc:title></dc:title>
      </cc:Work>
    </rdf:RDF>
  </metadata>
  <defs
     id="defs1282" />
  <sodipodi:namedview
     pagecolor="#ffffff"
     bordercolor="#666666"
     borderopacity="1"
     objecttolerance="10"
     gridtolerance="10"
     guidetolerance="10"
     inkscape:pageopacity="0"
     inkscape:pageshadow="2"
     inkscape:window-width="1920"
     inkscape:window-height="1010"
     id="namedview1280"
     showgrid="false"
     inkscape:zoom="6.5555556"
     inkscape:cx="18"
     inkscape:cy="18"
     inkscape:window-x="0"
     inkscape:window-y="0"
     inkscape:window-maximized="1"
     inkscape:current-layer="svg1278" />
  <circle
     cx="72"
     cy="72"
     id="circle1270"
     style="fill:#ffcc4d;stroke-width:4"
     r="72" />
  <path
     d="M 42.06,94.484 C 42.24,95.2 46.732,112 72,112 c 25.272,0 29.76,-16.8 29.94,-17.516 0.22,-0.868 -0.172,-1.768 -0.948,-2.216 -0.78,-0.444 -1.756,-0.312 -2.4,0.308 C 98.516,92.652 90.776,100 72,100 53.224,100 45.48,92.652 45.408,92.58 45.024,92.2 44.512,92 44,92 c -0.336,0 -0.676,0.084 -0.984,0.256 -0.784,0.448 -1.176,1.356 -0.956,2.228 z"
     id="path1272"
     inkscape:connector-curvature="0"
     style="fill:#664500;stroke-width:4" />
  <ellipse
     cx="48"
     cy="54"
     rx="10"
     ry="14"
     id="ellipse1274"
     style="fill:#664500;stroke-width:4" />
  <ellipse
     cx="96"
     cy="54"
     rx="10"
     ry="14"
     id="ellipse1276"
     style="fill:#664500;stroke-width:4" />
</svg>
