<?xml version="1.0" encoding="UTF-8" standalone="no"?>
<svg
   xmlns:dc="http://purl.org/dc/elements/1.1/"
   xmlns:cc="http://creativecommons.org/ns#"
   xmlns:rdf="http://www.w3.org/1999/02/22-rdf-syntax-ns#"
   xmlns:svg="http://www.w3.org/2000/svg"
   xmlns="http://www.w3.org/2000/svg"
   xmlns:sodipodi="http://sodipodi.sourceforge.net/DTD/sodipodi-0.dtd"
   xmlns:inkscape="http://www.inkscape.org/namespaces/inkscape"
   viewBox="0 0 144 144"
   version="1.1"
   id="svg1302"
   sodipodi:docname="sunglasses.svg"
   width="144"
   height="144"
   inkscape:version="0.92.3 (2405546, 2018-03-11)">
  <metadata
     id="metadata1308">
    <rdf:RDF>
      <cc:Work
         rdf:about="">
        <dc:format>image/svg+xml</dc:format>
        <dc:type
           rdf:resource="http://purl.org/dc/dcmitype/StillImage" />
        <dc:title></dc:title>
      </cc:Work>
    </rdf:RDF>
  </metadata>
  <defs
     id="defs1306" />
  <sodipodi:namedview
     pagecolor="#ffffff"
     bordercolor="#666666"
     borderopacity="1"
     objecttolerance="10"
     gridtolerance="10"
     guidetolerance="10"
     inkscape:pageopacity="0"
     inkscape:pageshadow="2"
     inkscape:window-width="1920"
     inkscape:window-height="1010"
     id="namedview1304"
     showgrid="false"
     inkscape:zoom="6.5555556"
     inkscape:cx="18"
     inkscape:cy="18"
     inkscape:window-x="0"
     inkscape:window-y="0"
     inkscape:window-maximized="1"
     inkscape:current-layer="svg1302" />
  <path
     d="m 144,72 c 0,39.764 -32.236,72 -72,72 C 32.236,144 0,111.764 0,72 0,32.236 32.236,0 72,0 c 39.764,0 72,32.236 72,72"
     id="path1296"
     inkscape:connector-curvature="0"
     style="fill:#ffcc4d;stroke-width:4" />
  <path
     d="m 4.96,44.072 c 0.96,0.956 5.752,3.828 6.708,6.7 0.96,2.868 2.88,19.136 8.632,23.924 5.932,4.928 28.308,3.096 32.592,0.96 9.588,-4.78 10.764,-18.124 12.46,-24.884 0.956,-3.828 6.708,-3.828 6.708,-3.828 0,0 5.752,0 6.712,3.824 1.696,6.764 2.88,20.108 12.46,24.884 4.288,2.14 26.664,3.976 32.604,-0.952 5.744,-4.788 7.66,-21.056 8.62,-23.928 0.952,-2.868 5.752,-5.74 6.708,-6.696 0.964,-0.956 0.964,-4.784 0,-5.744 -1.916,-1.912 -24.536,-3.616 -48.892,-0.956 -4.86,0.532 -6.708,1.912 -18.216,1.912 -11.5,0 -13.356,-1.384 -18.212,-1.912 -24.34,-2.664 -46.964,-0.96 -48.884,0.952 -0.956,0.956 -0.956,4.788 0,5.744 z"
     id="path1298"
     inkscape:connector-curvature="0"
     style="clip-rule:evenodd;fill:#292f33;fill-rule:evenodd;stroke-width:4" />
  <path
     d="M 109.34,94.516 C 108.628,93.872 107.564,93.832 106.8,94.4 106.644,94.516 91.112,106 72,106 52.936,106 37.352,94.516 37.2,94.4 c -0.764,-0.568 -1.828,-0.52 -2.54,0.116 -0.708,0.64 -0.868,1.696 -0.376,2.512 C 34.8,97.888 47.152,118 72,118 c 24.848,0 37.204,-20.112 37.716,-20.972 0.492,-0.82 0.336,-1.872 -0.376,-2.512 z"
     id="path1300"
     inkscape:connector-curvature="0"
     style="fill:#664500;stroke-width:4" />
</svg>
