<?xml version="1.0" encoding="UTF-8" standalone="no"?>
<svg
   xmlns:dc="http://purl.org/dc/elements/1.1/"
   xmlns:cc="http://creativecommons.org/ns#"
   xmlns:rdf="http://www.w3.org/1999/02/22-rdf-syntax-ns#"
   xmlns:svg="http://www.w3.org/2000/svg"
   xmlns="http://www.w3.org/2000/svg"
   xmlns:sodipodi="http://sodipodi.sourceforge.net/DTD/sodipodi-0.dtd"
   xmlns:inkscape="http://www.inkscape.org/namespaces/inkscape"
   viewBox="0 0 144 144"
   version="1.1"
   id="svg1320"
   sodipodi:docname="surprise.svg"
   width="144"
   height="144"
   inkscape:version="0.92.3 (2405546, 2018-03-11)">
  <metadata
     id="metadata1326">
    <rdf:RDF>
      <cc:Work
         rdf:about="">
        <dc:format>image/svg+xml</dc:format>
        <dc:type
           rdf:resource="http://purl.org/dc/dcmitype/StillImage" />
        <dc:title></dc:title>
      </cc:Work>
    </rdf:RDF>
  </metadata>
  <defs
     id="defs1324" />
  <sodipodi:namedview
     pagecolor="#ffffff"
     bordercolor="#666666"
     borderopacity="1"
     objecttolerance="10"
     gridtolerance="10"
     guidetolerance="10"
     inkscape:pageopacity="0"
     inkscape:pageshadow="2"
     inkscape:window-width="1920"
     inkscape:window-height="1010"
     id="namedview1322"
     showgrid="false"
     inkscape:zoom="6.5555556"
     inkscape:cx="18"
     inkscape:cy="18"
     inkscape:window-x="0"
     inkscape:window-y="0"
     inkscape:window-maximized="1"
     inkscape:current-layer="svg1320" />
  <path
     d="m 144,72 c 0,39.764 -32.236,72 -72,72 C 32.236,144 0,111.764 0,72 0,32.236 32.236,0 72,0 c 39.764,0 72,32.236 72,72"
     id="path1310"
     inkscape:connector-curvature="0"
     style="fill:#ffcc4d;stroke-width:4" />
  <ellipse
     cx="72"
     cy="102"
     rx="12"
     ry="14"
     id="ellipse1312"
     style="fill:#664500;stroke-width:4" />
  <path
     d="m 124.004,44 c -1.22,0 -2.416,-0.552 -3.204,-1.6 C 110.24,28.316 96.556,28.008 95.976,28 93.776,27.976 92,26.176 92.012,23.98 92.024,21.776 93.8,20 96,20 c 0.736,0 18.148,0.2 31.2,17.6 1.328,1.768 0.968,4.276 -0.8,5.6 -0.72,0.54 -1.56,0.8 -2.396,0.8 z M 19.996,44 C 19.164,44 18.32,43.74 17.6,43.2 15.832,41.876 15.476,39.368 16.8,37.6 29.848,20.2 47.264,20 48,20 c 2.208,0 4,1.792 4,4 0,2.204 -1.78,3.992 -3.984,4 -0.62,0.008 -14.272,0.344 -24.816,14.4 -0.784,1.048 -1.988,1.6 -3.204,1.6 z"
     id="path1314"
     inkscape:connector-curvature="0"
     style="fill:#664500;stroke-width:4" />
  <ellipse
     cx="48"
     cy="58"
     rx="10"
     ry="14"
     id="ellipse1316"
     style="fill:#664500;stroke-width:4" />
  <ellipse
     cx="96"
     cy="58"
     rx="10"
     ry="14"
     id="ellipse1318"
     style="fill:#664500;stroke-width:4" />
</svg>
