<?xml version="1.0" encoding="UTF-8" standalone="no"?>
<svg
   xmlns:dc="http://purl.org/dc/elements/1.1/"
   xmlns:cc="http://creativecommons.org/ns#"
   xmlns:rdf="http://www.w3.org/1999/02/22-rdf-syntax-ns#"
   xmlns:svg="http://www.w3.org/2000/svg"
   xmlns="http://www.w3.org/2000/svg"
   xmlns:sodipodi="http://sodipodi.sourceforge.net/DTD/sodipodi-0.dtd"
   xmlns:inkscape="http://www.inkscape.org/namespaces/inkscape"
   viewBox="0 0 144 144"
   version="1.1"
   id="svg1332"
   sodipodi:docname="thumbsup.svg"
   width="144"
   height="144"
   inkscape:version="0.92.3 (2405546, 2018-03-11)">
  <metadata
     id="metadata1338">
    <rdf:RDF>
      <cc:Work
         rdf:about="">
        <dc:format>image/svg+xml</dc:format>
        <dc:type
           rdf:resource="http://purl.org/dc/dcmitype/StillImage" />
        <dc:title></dc:title>
      </cc:Work>
    </rdf:RDF>
  </metadata>
  <defs
     id="defs1336" />
  <sodipodi:namedview
     pagecolor="#ffffff"
     bordercolor="#666666"
     borderopacity="1"
     objecttolerance="10"
     gridtolerance="10"
     guidetolerance="10"
     inkscape:pageopacity="0"
     inkscape:pageshadow="2"
     inkscape:window-width="1920"
     inkscape:window-height="1010"
     id="namedview1334"
     showgrid="false"
     inkscape:zoom="2.3177389"
     inkscape:cx="6.4094876"
     inkscape:cy="17.188158"
     inkscape:window-x="0"
     inkscape:window-y="0"
     inkscape:window-maximized="1"
     inkscape:current-layer="svg1332" />
  <path
     d="m 137.23455,71.803661 c 0,-2.008115 -0.47908,-3.89247 -1.28152,-5.605157 C 130.59938,48.927914 105.53587,50.189473 69.884838,49.347103 63.924369,49.207373 67.333773,42.168988 69.425726,26.718876 70.787093,16.670315 64.307627,1.2401638 53.416695,1.2401638 35.459433,1.2401638 52.734016,15.404763 36.85673,50.433002 28.373141,69.148797 9.4098248,58.665077 9.4098248,77.46471 v 42.79322 c 0,7.31784 0.7186102,14.35223 11.0107002,15.50999 9.976701,1.12183 7.733041,8.23208 22.1252,8.23208 h 72.036645 c 7.3378,0 13.30626,-5.97245 13.30626,-13.31025 0,-3.04212 -1.06594,-5.81276 -2.78661,-8.05642 4.07212,-2.27959 6.86671,-6.58326 6.86671,-11.57361 0,-3.03413 -1.06194,-5.80477 -2.77862,-8.04444 4.0841,-2.27559 6.88668,-6.583261 6.88668,-11.581592 0,-3.62898 -1.46916,-6.918617 -3.83658,-9.32596 3.02215,-2.439281 4.99434,-6.128145 4.99434,-10.304067 z"
     id="path1328"
     inkscape:connector-curvature="0"
     style="fill:#ffdb5e;stroke-width:3.99227715" />
  <path
     d="m 89.582733,85.109921 h 34.349547 c 4.67096,0 9.05448,-2.499166 11.44187,-6.519389 0.9821,-1.656795 0.43515,-3.800648 -1.22563,-4.78674 -1.6568,-0.986092 -3.80065,-0.431166 -4.78674,1.225629 -1.12982,1.912301 -3.21778,3.094015 -5.43349,3.094015 H 88.756332 c -3.485258,0 -6.319775,-2.834517 -6.319775,-6.319775 0,-3.485258 2.834517,-6.319774 6.319775,-6.319774 h 23.502528 c 1.92827,0 3.49324,-1.564973 3.49324,-3.493243 0,-1.92827 -1.56497,-3.493242 -3.49324,-3.493242 H 88.75234 c -7.337806,0 -13.30626,5.968454 -13.30626,13.306259 0,4.092084 1.896332,7.71308 4.810694,10.156353 -2.45525,2.415328 -3.984292,5.768841 -3.984292,9.473674 0,4.10406 1.908308,7.737033 4.838639,10.176312 -2.439281,2.41134 -3.952354,5.75287 -3.952354,9.44972 0,4.47135 2.231683,8.41572 5.625119,10.83105 -2.091954,2.35145 -3.401421,5.41353 -3.401421,8.79898 0,7.3378 5.968455,13.30626 13.30626,13.30626 h 21.893645 c 4.67096,0 9.05847,-2.49518 11.44586,-6.5154 0.98609,-1.65679 0.43915,-3.80065 -1.21765,-4.78674 -1.66079,-0.97811 -3.80464,-0.43915 -4.78674,1.21765 -1.1378,1.9123 -3.22576,3.098 -5.44147,3.098 H 92.688725 c -3.485258,0 -6.319775,-2.83451 -6.319775,-6.31977 0,-3.48526 2.834517,-6.31978 6.319775,-6.31978 h 25.973745 c 4.67097,0 9.06247,-2.49916 11.44586,-6.51938 0.9861,-1.66079 0.43915,-3.80464 -1.21764,-4.78675 -1.67277,-1.00206 -3.80863,-0.43915 -4.78674,1.21765 -1.15377,1.94424 -3.18983,3.102 -5.44148,3.102 H 90.465027 c -3.485258,0 -6.319775,-2.83851 -6.319775,-6.32377 0,-3.48526 2.834517,-6.31977 6.319775,-6.31977 h 32.301513 c 4.67096,0 9.05847,-2.49518 11.44585,-6.515399 0.9861,-1.656795 0.43915,-3.800648 -1.21764,-4.78674 -1.66478,-0.9821 -3.80464,-0.439151 -4.78674,1.217644 -1.15377,1.940247 -3.18983,3.098007 -5.44147,3.098007 H 89.582733 c -3.485258,0 -6.319774,-2.834516 -6.319774,-6.319774 0,-3.485258 2.830524,-6.323767 6.319774,-6.323767 z"
     id="path1330"
     inkscape:connector-curvature="0"
     style="fill:#ee9547;stroke-width:3.99227715" />
</svg>
