<?xml version="1.0" encoding="UTF-8" standalone="no"?>
<svg
   xmlns:dc="http://purl.org/dc/elements/1.1/"
   xmlns:cc="http://creativecommons.org/ns#"
   xmlns:rdf="http://www.w3.org/1999/02/22-rdf-syntax-ns#"
   xmlns:svg="http://www.w3.org/2000/svg"
   xmlns="http://www.w3.org/2000/svg"
   xmlns:sodipodi="http://sodipodi.sourceforge.net/DTD/sodipodi-0.dtd"
   xmlns:inkscape="http://www.inkscape.org/namespaces/inkscape"
   viewBox="0 0 144 144"
   version="1.1"
   id="svg1366"
   sodipodi:docname="wink.svg"
   width="144"
   height="144"
   inkscape:version="0.92.3 (2405546, 2018-03-11)">
  <metadata
     id="metadata1372">
    <rdf:RDF>
      <cc:Work
         rdf:about="">
        <dc:format>image/svg+xml</dc:format>
        <dc:type
           rdf:resource="http://purl.org/dc/dcmitype/StillImage" />
        <dc:title></dc:title>
      </cc:Work>
    </rdf:RDF>
  </metadata>
  <defs
     id="defs1370" />
  <sodipodi:namedview
     pagecolor="#ffffff"
     bordercolor="#666666"
     borderopacity="1"
     objecttolerance="10"
     gridtolerance="10"
     guidetolerance="10"
     inkscape:pageopacity="0"
     inkscape:pageshadow="2"
     inkscape:window-width="1920"
     inkscape:window-height="1010"
     id="namedview1368"
     showgrid="false"
     inkscape:zoom="6.5555556"
     inkscape:cx="18"
     inkscape:cy="18"
     inkscape:window-x="0"
     inkscape:window-y="0"
     inkscape:window-maximized="1"
     inkscape:current-layer="svg1366" />
  <path
     d="m 144,72 c 0,39.764 -32.236,72 -72,72 C 32.24,144 0,111.764 0,72 0,32.24 32.24,0 72,0 c 39.764,0 72,32.24 72,72"
     id="path1360"
     inkscape:connector-curvature="0"
     style="fill:#ffcc4d;stroke-width:4" />
  <ellipse
     cx="46"
     cy="66"
     rx="10"
     ry="14"
     id="ellipse1362"
     style="fill:#664500;stroke-width:4" />
  <path
     d="M 113.828,71.188 C 113.588,70.648 107.832,58 96,58 84.172,58 78.412,70.648 78.172,71.188 c -0.368,0.828 -0.128,1.796 0.58,2.364 0.7,0.568 1.704,0.588 2.44,0.056 C 81.24,73.572 86.24,70 96,70 c 9.704,0 14.696,3.524 14.808,3.604 0.352,0.264 0.776,0.396 1.192,0.396 0.44,0 0.884,-0.148 1.248,-0.436 0.708,-0.568 0.952,-1.544 0.58,-2.376 z M 23.996,49.832 c -0.832,0 -1.676,-0.26 -2.396,-0.8 -1.768,-1.324 -2.124,-3.832 -0.8,-5.6 13.048,-17.4 30.464,-17.6 31.2,-17.6 2.208,0 4,1.792 4,4 0,2.204 -1.78,3.992 -3.984,4 -0.624,0.008 -14.276,0.344 -24.82,14.4 -0.78,1.048 -1.984,1.6 -3.2,1.6 z m 92.008,8.5 c -1.22,0 -2.416,-0.552 -3.204,-1.6 -10.368,-13.828 -27.844,-10.508 -28.016,-10.48 -2.188,0.432 -4.272,-0.972 -4.708,-3.136 -0.432,-2.168 0.972,-4.272 3.136,-4.708 0.924,-0.188 22.628,-4.288 35.984,13.52 1.328,1.768 0.968,4.276 -0.8,5.6 -0.716,0.548 -1.556,0.804 -2.392,0.804 z M 93.016,94.308 C 92.264,93.868 91.288,93.96 90.628,94.548 90.588,94.58 86.576,98 72,98 57.436,98 53.416,94.584 53.416,94.584 52.78,93.944 51.8,93.824 51.016,94.256 50.236,94.7 49.844,95.612 50.064,96.484 50.104,96.66 54.64,114 72,114 89.36,114 93.896,96.66 93.94,96.484 94.152,95.632 93.764,94.76 93.016,94.308 Z"
     id="path1364"
     inkscape:connector-curvature="0"
     style="fill:#664500;stroke-width:4" />
</svg>
